<?xml version="1.0" encoding="UTF-8" standalone="no"?>
<svg
   xmlns:dc="http://purl.org/dc/elements/1.1/"
   xmlns:cc="http://creativecommons.org/ns#"
   xmlns:rdf="http://www.w3.org/1999/02/22-rdf-syntax-ns#"
   xmlns:svg="http://www.w3.org/2000/svg"
   xmlns="http://www.w3.org/2000/svg"
   version="1.1"
   id="svg2"
   height="30"
   width="37">
  <defs
     id="defs4" />
  <metadata
     id="metadata7">
    <rdf:RDF>
      <cc:Work
         rdf:about="">
        <dc:format>image/svg+xml</dc:format>
        <dc:type
           rdf:resource="http://purl.org/dc/dcmitype/StillImage" />
        <dc:title></dc:title>
      </cc:Work>
    </rdf:RDF>
  </metadata>
  <g
     transform="translate(-282.32053,-505.68573)"
     id="layer1">
    <path
       d="m 319.23564,509.23695 c -1.3581,0.60246 -2.81792,1.00945 -4.34971,1.19254 1.56354,-0.93727 2.76458,-2.42144 3.32993,-4.19004 -1.46351,0.86805 -3.08426,1.4982 -4.80948,1.83781 -1.38137,-1.47199 -3.3497,-2.39154 -5.52805,-2.39154 -4.18248,0 -7.57369,3.39083 -7.57369,7.57332 0,0.5936 0.067,1.17168 0.19621,1.72597 -6.29441,-0.31581 -11.87487,-3.33104 -15.6103,-7.91313 -0.65193,1.11853 -1.02551,2.41942 -1.02551,3.80743 0,2.62761 1.33707,4.9457 3.36924,6.30381 -1.24145,-0.0393 -2.40926,-0.38004 -3.43033,-0.94723 -7.5e-4,0.0316 -7.5e-4,0.0633 -7.5e-4,0.0952 0,3.66936 2.61064,6.73018 6.07531,7.4264 -0.6355,0.17313 -1.30458,0.2656 -1.99526,0.2656 -0.48802,0 -0.96239,-0.0477 -1.42493,-0.13585 0.96385,3.00877 3.76074,5.1984 7.07498,5.25931 -2.592,2.03143 -5.85752,3.24224 -9.40599,3.24224 -0.61131,0 -1.21414,-0.036 -1.80662,-0.10594 3.35171,2.14902 7.33263,3.40284 11.60963,3.40284 13.93047,0 21.54847,-11.54022 21.54847,-21.54865 0,-0.32836 -0.007,-0.65487 -0.022,-0.97992 1.47957,-1.06757 2.76347,-2.40133 3.77882,-3.9202 z"
       id="path5"
       style="fill:#888888;fill-opacity:1" />
  </g>
</svg>
